<svg width="219" height="219" viewBox="0 0 219 219" fill="none" xmlns="http://www.w3.org/2000/svg">
<g clip-path="url(#clip0)">
<path d="M206.168 29.4249L196.83 21.2028L206.168 12.9824C207.62 11.7021 208.116 9.70656 207.434 7.8961C206.749 6.08397 205.057 4.91368 203.122 4.91368H164.482V3.25326C164.482 1.48448 163.048 0.0507812 161.279 0.0507812C159.511 0.0507812 158.077 1.48448 158.077 3.25326V46.4442L131.775 60.7261C131.63 59.5692 131.284 58.4322 130.735 57.3619L127.029 50.1268C124.485 45.1589 118.374 43.19 113.409 45.7323L110.543 47.1994C108.136 48.433 106.354 50.5269 105.524 53.1009C104.694 55.6732 104.915 58.4155 106.149 60.8212L109.855 68.058C110.72 69.7467 111.999 71.0837 113.502 72.0207C111.535 74.6697 110.602 77.9271 109.641 81.3113L108.951 83.7553C108.469 85.4574 109.46 87.2278 111.162 87.708C111.452 87.7913 111.745 87.8297 112.034 87.8297C113.431 87.8297 114.714 86.9094 115.114 85.4974L115.805 83.0584C117.208 78.1089 118.07 75.4582 120.814 73.9678L125.734 71.2955L126.341 70.9854C126.542 70.882 126.731 70.7653 126.922 70.6503L161.985 51.6105C161.763 55.9933 159.404 60.1343 155.52 62.4932L132.719 76.3467C132.692 76.3618 132.666 76.3768 132.641 76.3934L125.544 80.7045C124.033 81.6231 123.552 83.5936 124.47 85.1056C125.335 86.531 127.136 87.0378 128.605 86.3226L123.22 102.6L119.284 104.214L108.581 108.6L111.665 97.6971C112.145 95.9951 111.157 94.2246 109.455 93.7428C107.751 93.2594 105.982 94.2513 105.5 95.9534L100.627 113.186C100.564 113.408 100.522 113.651 100.512 113.883L99.2371 137.309C99.1988 138.202 99.3888 139.891 98.9754 140.763L84.8118 170.561H74.5192C68.4894 170.561 63.5848 175.465 63.5848 181.493V190.737C62.2044 190.106 60.6724 189.752 59.057 189.752H32.9187C26.8905 189.752 21.9859 194.655 21.9859 200.685V212.154H14.2973C12.5285 212.154 11.0948 213.588 11.0948 215.357C11.0948 217.126 12.5285 218.559 14.2973 218.559H203.118C204.887 218.559 206.321 217.126 206.321 215.357C206.321 213.588 204.887 212.154 203.118 212.154H194.79V129.609C194.79 123.58 189.885 118.676 183.857 118.676H164.482V62.8067C168.033 57.9938 169.348 51.6855 167.699 45.6907C167.441 44.7488 166.766 43.9752 165.866 43.5935C165.424 43.4051 164.95 43.3217 164.482 43.3401V37.4936H203.12C205.057 37.4936 206.749 36.3233 207.433 34.5128C208.116 32.7024 207.62 30.7052 206.168 29.4249V29.4249ZM111.62 55.068C111.925 54.1228 112.579 53.3526 113.462 52.9008L116.328 51.4338C116.868 51.157 117.445 51.0253 118.015 51.0253C119.366 51.0253 120.671 51.7639 121.328 53.0459L125.035 60.2827C125.901 61.9731 125.34 64.022 123.802 65.0572L122.758 65.6224L120.556 66.751C118.734 67.6846 116.49 66.961 115.556 65.1372L111.849 57.9021C111.397 57.0185 111.315 56.0116 111.62 55.068V55.068ZM105.185 171.546C104.097 171.049 102.913 170.724 101.669 170.609L105.185 165.939V171.546ZM120.391 145.741C121.931 143.896 122.356 141.74 122.7 140.003C122.786 139.589 124.367 130.957 124.367 130.957C124.367 130.957 125.862 131.889 126.019 131.956C126.127 132.004 126.204 132.111 126.216 132.236L127.958 149.945H117.225L120.391 145.741ZM139.329 128.065L136.625 149.93H134.393L132.591 131.609C132.361 129.262 130.923 127.213 128.818 126.194L125.597 124.152L127.743 112.261C127.743 112.261 136.782 122.999 136.992 123.272C138.862 125.704 139.502 126.678 139.329 128.065ZM104.737 143.564C105.384 141.617 105.684 139.634 105.634 137.619L106.797 116.254L121.609 110.184L118.917 125.097C118.909 125.137 118.9 125.179 118.895 125.219L116.668 137.551C116.378 138.828 116.125 140.765 115.328 141.817L93.6874 170.561H91.9036L104.737 143.564ZM28.3909 200.683C28.3909 198.188 30.4214 196.157 32.9187 196.157H59.057C61.5543 196.157 63.5864 198.188 63.5864 200.683V212.154H28.3909V200.683ZM69.9897 200.683V181.493C69.9897 178.996 72.0219 176.966 74.5192 176.966H100.657C103.155 176.966 105.185 178.996 105.185 181.493V212.154H69.9914V200.683H69.9897ZM188.385 129.609V212.154H153.191V192.953C153.191 191.184 151.757 189.75 149.988 189.75C148.218 189.75 146.784 191.184 146.784 192.953V212.154H111.59V160.876C111.59 158.381 113.621 156.35 116.118 156.35H142.256C144.754 156.35 146.784 158.381 146.784 160.876V176.931C146.784 178.699 148.218 180.133 149.987 180.133C151.757 180.133 153.189 178.699 153.189 176.931V129.609C153.189 127.111 155.221 125.081 157.719 125.081H161.246C161.256 125.081 161.268 125.082 161.279 125.082C161.289 125.082 161.301 125.081 161.311 125.081H183.855C186.352 125.081 188.385 127.113 188.385 129.609V129.609ZM157.719 118.676C151.69 118.676 146.786 123.58 146.786 129.609V150.931C145.639 150.407 144.389 150.075 143.073 149.979L145.686 128.853C146.199 124.736 144.098 122.007 142.068 119.366C141.853 119.086 129.405 104.305 129.405 104.305L137.042 81.2163L158.077 68.4364V118.676H157.719ZM164.482 31.087V11.3203H198.362L191.065 17.7453C190.072 18.6205 189.502 19.8808 189.502 21.2045C189.502 22.5281 190.072 23.7885 191.065 24.6637L198.362 31.0886H164.482V31.087Z" fill="black"/>
</g>
<defs>
<clipPath id="clip0">
<rect width="218.509" height="218.509" fill="white" transform="translate(0 0.0507812)"/>
</clipPath>
</defs>
</svg>
