<svg width="275" height="275" viewBox="0 0 275 275" fill="none" xmlns="http://www.w3.org/2000/svg">
<path d="M254.427 102.204H211.726L232.751 76.2413C244.123 77.4622 255.474 73.5084 263.642 65.3412C270.81 58.1724 274.758 48.6409 274.758 38.5032C274.758 28.3656 270.81 18.8341 263.642 11.6653C256.473 4.49703 246.941 0.549072 236.804 0.549072C226.666 0.549072 217.134 4.49703 209.966 11.6653C202.054 19.5773 198.07 30.6031 198.992 41.6776L124.247 102.204H21.1557C9.94532 102.204 0.824738 111.324 0.824738 122.535C0.824738 131.082 6.12952 138.41 13.6172 141.411C14.2999 163.798 20.9583 185.473 32.9857 204.323C44.7375 222.74 61.0713 237.702 80.3654 247.774V269.132C80.3654 272.087 82.7607 274.482 85.7156 274.482H189.867C192.822 274.482 195.218 272.087 195.218 269.132V247.774C214.512 237.702 230.845 222.741 242.597 204.323C254.624 185.473 261.283 163.798 261.966 141.411C269.453 138.41 274.758 131.082 274.758 122.535C274.758 111.324 265.637 102.204 254.427 102.204V102.204ZM208.035 48.1241C209.536 46.9085 210.265 44.9787 209.943 43.074C208.471 34.3691 211.309 25.4561 217.533 19.2322C222.68 14.0841 229.524 11.2496 236.804 11.2496C244.083 11.2496 250.927 14.0841 256.075 19.2322C261.223 24.3796 264.057 31.2237 264.057 38.5032C264.057 45.7828 261.223 52.6268 256.075 57.7743C249.649 64.2 240.478 66.9934 231.544 65.2465C229.601 64.865 227.605 65.5916 226.359 67.1303L197.958 102.204H141.25L208.035 48.1241ZM184.517 263.782H91.0659V249.871H184.517V263.782H184.517ZM254.427 132.165H161.935C158.98 132.165 156.585 134.561 156.585 137.516C156.585 140.471 158.98 142.866 161.935 142.866H251.204C249.34 184.109 225.72 220.578 188.541 239.17H87.0425C49.8625 220.578 26.2427 184.109 24.3787 142.866H113.783C116.738 142.866 119.133 140.471 119.133 137.516C119.133 134.561 116.738 132.165 113.783 132.165H21.1557C15.8456 132.165 11.5252 127.845 11.5252 122.535C11.5252 117.225 15.8456 112.904 21.1557 112.904H254.427C259.737 112.904 264.057 117.225 264.057 122.535C264.057 127.845 259.737 132.165 254.427 132.165Z" fill="black"/>
<path d="M88.3925 78.1319H102.939C119.896 78.1319 133.691 64.3363 133.691 47.3797V32.8329C133.691 29.878 131.296 27.4827 128.341 27.4827H113.795C96.8378 27.4827 83.0422 41.2783 83.0422 58.2349V72.7817C83.0422 75.7366 85.4375 78.1319 88.3925 78.1319V78.1319ZM93.7427 58.2354C93.7427 47.1786 102.738 38.1837 113.795 38.1837H122.991V47.3797C122.991 58.4366 113.996 67.4314 102.939 67.4314H93.7427V58.2354Z" fill="black"/>
<path d="M43.4935 50.3082H57.7156C60.6705 50.3082 63.0658 47.9128 63.0658 44.9579V30.7359C63.0653 14.0917 49.5244 0.550781 32.8802 0.550781H18.6582C15.7032 0.550781 13.3079 2.94609 13.3079 5.90104V20.1231C13.3079 36.7672 26.8494 50.3082 43.4935 50.3082V50.3082ZM24.0084 11.2513H32.8802C43.6241 11.2513 52.3648 19.992 52.3648 30.7359V39.6076H43.4935C32.7497 39.6076 24.009 30.8669 24.009 20.1231V11.2513H24.0084Z" fill="black"/>
<path d="M40.3797 72.2065C39.3846 73.2017 38.8121 74.5821 38.8121 75.9892C38.8121 77.3963 39.3846 78.7767 40.3797 79.7718C41.3749 80.767 42.7553 81.3394 44.1624 81.3394C45.5695 81.3394 46.9499 80.767 47.945 79.7718C48.9402 78.7767 49.5126 77.3963 49.5126 75.9892C49.5126 74.5821 48.9402 73.2017 47.945 72.2065C46.9499 71.2114 45.5695 70.6389 44.1624 70.6389C42.7553 70.6389 41.3749 71.2114 40.3797 72.2065Z" fill="black"/>
<path d="M137.861 132.237C136.454 132.237 135.073 132.804 134.078 133.805C133.083 134.8 132.51 136.175 132.51 137.588C132.51 138.995 133.083 140.375 134.078 141.37C135.073 142.365 136.454 142.938 137.861 142.938C139.268 142.938 140.648 142.365 141.643 141.37C142.638 140.375 143.211 138.995 143.211 137.588C143.211 136.175 142.638 134.8 141.643 133.805C140.648 132.804 139.268 132.237 137.861 132.237Z" fill="black"/>
</svg>
