<svg width="232" height="231" viewBox="0 0 232 231" fill="none" xmlns="http://www.w3.org/2000/svg">
<g clip-path="url(#clip0)">
<path d="M229.686 60.4962L170.704 1.51378C168.779 -0.411169 165.67 -0.411169 163.745 1.51378L2.14746 163.111C0.222513 165.036 0.222513 168.145 2.14746 170.07L61.1299 229.053C63.0549 230.978 66.1644 230.978 68.0893 229.053L229.686 67.4557C231.611 65.5307 231.611 62.4212 229.686 60.4962ZM64.585 218.589L12.6113 166.615L51.6532 127.573L69.3726 145.293C71.2482 147.267 74.4071 147.316 76.3321 145.391C78.3064 143.516 78.3557 140.357 76.4308 138.432C76.3814 138.383 76.3814 138.383 76.3321 138.333L58.6127 120.663L71.495 107.781L99.1353 135.421C101.06 137.346 104.219 137.346 106.095 135.372C108.02 133.447 108.02 130.337 106.095 128.412L78.4545 100.772L91.3368 87.8898L109.056 105.56C110.981 107.485 114.091 107.485 116.016 105.56C117.941 103.635 117.941 100.525 116.016 98.6004L98.2963 80.9303L111.179 68.048L138.819 95.6883C140.744 97.6132 143.853 97.6132 145.778 95.6883C147.703 93.7633 147.703 90.6538 145.778 88.7288L118.138 61.0885L131.02 48.2062L148.74 65.9256C150.665 67.8505 153.774 67.8999 155.699 65.9749C157.624 64.05 157.674 60.9405 155.749 59.0155C155.749 59.0155 155.749 59.0155 155.699 58.9661L138.128 41.0987L151.01 28.2163L178.651 55.8566C180.576 57.7816 183.685 57.7816 185.61 55.8566C187.535 53.9317 187.535 50.8221 185.61 48.8972L157.97 21.2569L167.249 11.9776L219.223 63.9513L64.585 218.589Z" fill="black"/>
<path d="M68.4858 163.609C62.2667 157.439 52.2471 157.439 46.0774 163.609C39.9076 169.828 39.9076 179.847 46.0774 186.017C52.2471 192.187 62.316 192.187 68.4858 186.017C74.6555 179.847 74.6555 169.828 68.4858 163.609ZM62.0199 178.91C61.9212 179.008 61.7731 179.156 61.477 179.107C59.1571 181.427 55.3566 181.427 52.9874 179.107C50.6676 176.787 50.6676 172.987 52.9874 170.618C55.3072 168.298 59.1078 168.298 61.477 170.618C63.8955 172.839 64.241 176.491 62.0199 178.91Z" fill="black"/>
</g>
<defs>
<clipPath id="clip0">
<rect width="230.426" height="230.426" fill="white" transform="translate(0.703751 0.0700684)"/>
</clipPath>
</defs>
</svg>
